<?xml version="1.0" encoding="UTF-8"?>
<svg id="Capa_1" data-name="Capa 1" xmlns="http://www.w3.org/2000/svg" xmlns:xlink="http://www.w3.org/1999/xlink" viewBox="0 0 1600 300">
  <defs>
    <style>
      .cls-1 {
        fill: #fff;
      }

      .cls-2 {
        opacity: .6;
      }

      .cls-3 {
        fill: #ffd026;
      }

      .cls-4 {
        fill: #fff3d9;
      }

      .cls-5 {
        clip-path: url(#clippath);
      }

      .cls-6 {
        fill: none;
      }
    </style>
    <clipPath id="clippath">
      <rect class="cls-6" x="-.07" y="-.19" width="1600.07" height="300.19"/>
    </clipPath>
  </defs>
  <g class="cls-5">
    <g>
      <rect class="cls-3" x="-.07" y="-.19" width="1600.07" height="300.19"/>
      <path class="cls-4" d="m1835.56,288.15c14.37-49.82-69.56-93.88-157.04-100.42-87.48-6.54-174.43,13.77-255.62,34.53-183.82,47.01-347.26,60.73-489.27-32.2-67.66-44.27-124.19-97.14-215.52-124.53C543.06,13.03,299.72,71.56,140.76,4.69,51.94-32.68,17.66-106.57,61.96-165.17l-317.96-6.03v496.2H1833.07l2.49-36.85Z"/>
      <path class="cls-1" d="m-331,41.04c45.94,8.45,96.82,5.07,144.44-.44C-74.33,27.6,18.78,17.49,102.26,68.38c48.6,29.63,78.41,66.49,128.92,95.28,71.95,41.01,167.95,59.87,274.46,51.72,65.9-5.04,130.69-15.77,197.32-15.14,147.97,1.4,282.68,67.27,291.99,142.76H-331V41.04Z"/>
    </g>
    <g>
      <g class="cls-2">
        <rect class="cls-1" x="1582.75" y="22.27" width="6.99" height="3.37" transform="translate(3172.5 47.91) rotate(180)"/>
        <rect class="cls-1" x="1557.33" y="22.27" width="6.99" height="3.37" transform="translate(3121.65 47.91) rotate(180)"/>
        <rect class="cls-1" x="1531.91" y="22.27" width="6.99" height="3.37" transform="translate(3070.81 47.91) rotate(180)"/>
        <rect class="cls-1" x="1584.56" y="32.79" width="3.37" height="6.99" transform="translate(1622.53 -1549.97) rotate(90)"/>
        <rect class="cls-1" x="1584.56" y="45.04" width="3.37" height="6.99" transform="translate(1634.78 -1537.71) rotate(90)"/>
        <rect class="cls-1" x="1584.56" y="57.3" width="3.37" height="6.99" transform="translate(1647.04 -1525.46) rotate(90)"/>
        <rect class="cls-1" x="1584.56" y="69.55" width="3.37" height="6.99" transform="translate(1659.29 -1513.2) rotate(90)"/>
        <rect class="cls-1" x="1584.56" y="81.81" width="3.37" height="6.99" transform="translate(1671.55 -1500.95) rotate(90)"/>
        <rect class="cls-1" x="1559.14" y="32.79" width="3.37" height="6.99" transform="translate(1597.11 -1524.54) rotate(90)"/>
        <rect class="cls-1" x="1559.14" y="45.04" width="3.37" height="6.99" transform="translate(1609.36 -1512.29) rotate(90)"/>
        <rect class="cls-1" x="1559.14" y="57.3" width="3.37" height="6.99" transform="translate(1621.62 -1500.04) rotate(90)"/>
        <rect class="cls-1" x="1559.14" y="69.55" width="3.37" height="6.99" transform="translate(1633.87 -1487.78) rotate(90)"/>
        <rect class="cls-1" x="1559.14" y="81.81" width="3.37" height="6.99" transform="translate(1646.12 -1475.53) rotate(90)"/>
        <rect class="cls-1" x="1533.72" y="32.79" width="3.37" height="6.99" transform="translate(1571.69 -1499.12) rotate(90)"/>
        <rect class="cls-1" x="1533.72" y="45.04" width="3.37" height="6.99" transform="translate(1583.94 -1486.87) rotate(90)"/>
        <rect class="cls-1" x="1533.72" y="57.3" width="3.37" height="6.99" transform="translate(1596.19 -1474.61) rotate(90)"/>
        <rect class="cls-1" x="1533.72" y="69.55" width="3.37" height="6.99" transform="translate(1608.45 -1462.36) rotate(90)"/>
        <rect class="cls-1" x="1533.72" y="81.81" width="3.37" height="6.99" transform="translate(1620.7 -1450.1) rotate(90)"/>
        <rect class="cls-1" x="1584.56" y="94.06" width="3.37" height="6.99" transform="translate(1683.8 -1488.69) rotate(90)"/>
        <rect class="cls-1" x="1584.56" y="106.31" width="3.37" height="6.99" transform="translate(1696.06 -1476.44) rotate(90)"/>
        <rect class="cls-1" x="1584.56" y="118.57" width="3.37" height="6.99" transform="translate(1708.31 -1464.19) rotate(90)"/>
        <rect class="cls-1" x="1584.56" y="130.82" width="3.37" height="6.99" transform="translate(1720.56 -1451.93) rotate(90)"/>
        <rect class="cls-1" x="1559.14" y="94.06" width="3.37" height="6.99" transform="translate(1658.38 -1463.27) rotate(90)"/>
        <rect class="cls-1" x="1559.14" y="106.31" width="3.37" height="6.99" transform="translate(1670.63 -1451.02) rotate(90)"/>
        <rect class="cls-1" x="1559.14" y="118.57" width="3.37" height="6.99" transform="translate(1682.89 -1438.76) rotate(90)"/>
        <rect class="cls-1" x="1533.72" y="94.06" width="3.37" height="6.99" transform="translate(1632.96 -1437.85) rotate(90)"/>
        <rect class="cls-1" x="1533.72" y="106.31" width="3.37" height="6.99" transform="translate(1645.21 -1425.6) rotate(90)"/>
        <rect class="cls-1" x="1533.72" y="118.57" width="3.37" height="6.99" transform="translate(1657.47 -1413.34) rotate(90)"/>
        <rect class="cls-1" x="1584.56" y="8.21" width="3.37" height="6.99" transform="translate(1597.95 -1574.55) rotate(90)"/>
        <rect class="cls-1" x="1559.14" y="8.21" width="3.37" height="6.99" transform="translate(1572.53 -1549.12) rotate(90)"/>
        <rect class="cls-1" x="1533.72" y="8.21" width="3.37" height="6.99" transform="translate(1547.11 -1523.7) rotate(90)"/>
        <rect class="cls-1" x="1506.49" y="22.27" width="6.99" height="3.37" transform="translate(3019.96 47.91) rotate(180)"/>
        <rect class="cls-1" x="1481.07" y="22.27" width="6.99" height="3.37" transform="translate(2969.12 47.91) rotate(180)"/>
        <rect class="cls-1" x="1508.3" y="32.79" width="3.37" height="6.99" transform="translate(1546.26 -1473.7) rotate(90)"/>
        <rect class="cls-1" x="1508.3" y="45.04" width="3.37" height="6.99" transform="translate(1558.52 -1461.45) rotate(90)"/>
        <rect class="cls-1" x="1508.3" y="57.3" width="3.37" height="6.99" transform="translate(1570.77 -1449.19) rotate(90)"/>
        <rect class="cls-1" x="1508.3" y="69.55" width="3.37" height="6.99" transform="translate(1583.03 -1436.94) rotate(90)"/>
        <rect class="cls-1" x="1508.3" y="81.81" width="3.37" height="6.99" transform="translate(1595.28 -1424.68) rotate(90)"/>
        <rect class="cls-1" x="1482.88" y="32.79" width="3.37" height="6.99" transform="translate(1520.84 -1448.28) rotate(90)"/>
        <rect class="cls-1" x="1482.88" y="45.04" width="3.37" height="6.99" transform="translate(1533.1 -1436.02) rotate(90)"/>
        <rect class="cls-1" x="1482.88" y="57.3" width="3.37" height="6.99" transform="translate(1545.35 -1423.77) rotate(90)"/>
        <rect class="cls-1" x="1482.88" y="69.55" width="3.37" height="6.99" transform="translate(1557.6 -1411.51) rotate(90)"/>
        <rect class="cls-1" x="1508.3" y="94.06" width="3.37" height="6.99" transform="translate(1607.53 -1412.43) rotate(90)"/>
        <rect class="cls-1" x="1508.3" y="106.31" width="3.37" height="6.99" transform="translate(1619.79 -1400.17) rotate(90)"/>
        <rect class="cls-1" x="1508.3" y="8.21" width="3.37" height="6.99" transform="translate(1521.68 -1498.28) rotate(90)"/>
        <rect class="cls-1" x="1482.88" y="8.21" width="3.37" height="6.99" transform="translate(1496.26 -1472.86) rotate(90)"/>
        <rect class="cls-1" x="1455.64" y="22.27" width="6.99" height="3.37" transform="translate(2918.27 47.91) rotate(180)"/>
        <rect class="cls-1" x="1430.22" y="22.27" width="6.99" height="3.37" transform="translate(2867.43 47.91) rotate(180)"/>
        <rect class="cls-1" x="1457.45" y="32.79" width="3.37" height="6.99" transform="translate(1495.42 -1422.86) rotate(90)"/>
        <rect class="cls-1" x="1457.45" y="45.04" width="3.37" height="6.99" transform="translate(1507.67 -1410.6) rotate(90)"/>
        <rect class="cls-1" x="1432.03" y="32.79" width="3.37" height="6.99" transform="translate(1470 -1397.43) rotate(90)"/>
        <rect class="cls-1" x="1432.03" y="45.04" width="3.37" height="6.99" transform="translate(1482.25 -1385.18) rotate(90)"/>
        <rect class="cls-1" x="1457.45" y="8.21" width="3.37" height="6.99" transform="translate(1470.84 -1447.43) rotate(90)"/>
        <rect class="cls-1" x="1432.03" y="8.21" width="3.37" height="6.99" transform="translate(1445.42 -1422.01) rotate(90)"/>
        <rect class="cls-1" x="1404.8" y="22.27" width="6.99" height="3.37" transform="translate(2816.59 47.91) rotate(180)"/>
        <rect class="cls-1" x="1379.38" y="22.27" width="6.99" height="3.37" transform="translate(2765.74 47.91) rotate(180)"/>
        <rect class="cls-1" x="1406.61" y="32.79" width="3.37" height="6.99" transform="translate(1444.57 -1372.01) rotate(90)"/>
        <rect class="cls-1" x="1406.61" y="45.04" width="3.37" height="6.99" transform="translate(1456.83 -1359.76) rotate(90)"/>
        <rect class="cls-1" x="1381.19" y="32.79" width="3.37" height="6.99" transform="translate(1419.15 -1346.59) rotate(90)"/>
        <rect class="cls-1" x="1381.19" y="45.04" width="3.37" height="6.99" transform="translate(1431.41 -1334.33) rotate(90)"/>
        <rect class="cls-1" x="1406.61" y="8.21" width="3.37" height="6.99" transform="translate(1420 -1396.59) rotate(90)"/>
        <rect class="cls-1" x="1381.19" y="8.21" width="3.37" height="6.99" transform="translate(1394.57 -1371.17) rotate(90)"/>
        <rect class="cls-1" x="1353.95" y="22.27" width="6.99" height="3.37" transform="translate(2714.9 47.91) rotate(180)"/>
        <rect class="cls-1" x="1328.53" y="22.27" width="6.99" height="3.37" transform="translate(2664.05 47.91) rotate(180)"/>
        <rect class="cls-1" x="1355.76" y="8.21" width="3.37" height="6.99" transform="translate(1369.15 -1345.75) rotate(90)"/>
        <rect class="cls-1" x="1330.34" y="8.21" width="3.37" height="6.99" transform="translate(1343.73 -1320.32) rotate(90)"/>
        <rect class="cls-1" x="1303.11" y="22.27" width="6.99" height="3.37" transform="translate(2613.21 47.91) rotate(180)"/>
        <rect class="cls-1" x="1277.69" y="22.27" width="6.99" height="3.37" transform="translate(2562.36 47.91) rotate(180)"/>
        <rect class="cls-1" x="1304.92" y="8.21" width="3.37" height="6.99" transform="translate(1318.31 -1294.9) rotate(90)"/>
        <rect class="cls-1" x="1279.5" y="8.21" width="3.37" height="6.99" transform="translate(1292.88 -1269.48) rotate(90)"/>
        <rect class="cls-1" x="1252.27" y="22.27" width="6.99" height="3.37" transform="translate(2511.52 47.91) rotate(180)"/>
        <rect class="cls-1" x="1226.84" y="22.27" width="6.99" height="3.37" transform="translate(2460.68 47.91) rotate(180)"/>
        <rect class="cls-1" x="1254.08" y="8.21" width="3.37" height="6.99" transform="translate(1267.46 -1244.06) rotate(90)"/>
        <rect class="cls-1" x="1228.65" y="8.21" width="3.37" height="6.99" transform="translate(1242.04 -1218.64) rotate(90)"/>
        <rect class="cls-1" x="1201.42" y="22.27" width="6.99" height="3.37" transform="translate(2409.83 47.91) rotate(180)"/>
        <rect class="cls-1" x="1176" y="22.27" width="6.99" height="3.37" transform="translate(2358.99 47.91) rotate(180)"/>
        <rect class="cls-1" x="1203.23" y="8.21" width="3.37" height="6.99" transform="translate(1216.62 -1193.21) rotate(90)"/>
        <rect class="cls-1" x="1177.81" y="8.21" width="3.37" height="6.99" transform="translate(1191.2 -1167.79) rotate(90)"/>
      </g>
      <g>
        <rect class="cls-3" x="11.18" y="276.62" width="7.71" height="3.92"/>
        <rect class="cls-3" x="39.25" y="276.62" width="7.71" height="3.92"/>
        <rect class="cls-3" x="67.32" y="276.62" width="7.71" height="3.92"/>
        <rect class="cls-3" x="13.08" y="260.39" width="3.92" height="7.71" transform="translate(-249.2 279.29) rotate(-90)"/>
        <rect class="cls-3" x="13.08" y="246.13" width="3.92" height="7.71" transform="translate(-234.95 265.03) rotate(-90)"/>
        <rect class="cls-3" x="13.08" y="231.88" width="3.92" height="7.71" transform="translate(-220.69 250.78) rotate(-90)"/>
        <rect class="cls-3" x="13.08" y="217.63" width="3.92" height="7.71" transform="translate(-206.44 236.53) rotate(-90)"/>
        <rect class="cls-3" x="13.08" y="203.37" width="3.92" height="7.71" transform="translate(-192.19 222.27) rotate(-90)"/>
        <rect class="cls-3" x="41.15" y="260.39" width="3.92" height="7.71" transform="translate(-221.13 307.36) rotate(-90)"/>
        <rect class="cls-3" x="41.15" y="246.13" width="3.92" height="7.71" transform="translate(-206.88 293.1) rotate(-90)"/>
        <rect class="cls-3" x="41.15" y="231.88" width="3.92" height="7.71" transform="translate(-192.63 278.85) rotate(-90)"/>
        <rect class="cls-3" x="41.15" y="217.63" width="3.92" height="7.71" transform="translate(-178.37 264.59) rotate(-90)"/>
        <rect class="cls-3" x="41.15" y="203.37" width="3.92" height="7.71" transform="translate(-164.12 250.34) rotate(-90)"/>
        <rect class="cls-3" x="69.22" y="260.39" width="3.92" height="7.71" transform="translate(-193.07 335.42) rotate(-90)"/>
        <rect class="cls-3" x="69.22" y="246.13" width="3.92" height="7.71" transform="translate(-178.81 321.17) rotate(-90)"/>
        <rect class="cls-3" x="69.22" y="231.88" width="3.92" height="7.71" transform="translate(-164.56 306.92) rotate(-90)"/>
        <rect class="cls-3" x="69.22" y="217.63" width="3.92" height="7.71" transform="translate(-150.3 292.66) rotate(-90)"/>
        <rect class="cls-3" x="69.22" y="203.37" width="3.92" height="7.71" transform="translate(-136.05 278.41) rotate(-90)"/>
        <rect class="cls-3" x="13.08" y="189.12" width="3.92" height="7.71" transform="translate(-177.93 208.02) rotate(-90)"/>
        <rect class="cls-3" x="13.08" y="174.86" width="3.92" height="7.71" transform="translate(-163.68 193.76) rotate(-90)"/>
        <rect class="cls-3" x="13.08" y="160.61" width="3.92" height="7.71" transform="translate(-149.42 179.51) rotate(-90)"/>
        <rect class="cls-3" x="13.08" y="146.36" width="3.92" height="7.71" transform="translate(-135.17 165.26) rotate(-90)"/>
        <rect class="cls-3" x="41.15" y="189.12" width="3.92" height="7.71" transform="translate(-149.86 236.09) rotate(-90)"/>
        <rect class="cls-3" x="41.15" y="174.86" width="3.92" height="7.71" transform="translate(-135.61 221.83) rotate(-90)"/>
        <rect class="cls-3" x="41.15" y="160.61" width="3.92" height="7.71" transform="translate(-121.36 207.58) rotate(-90)"/>
        <rect class="cls-3" x="13.08" y="132.1" width="3.92" height="7.71" transform="translate(-120.92 151) rotate(-90)"/>
        <rect class="cls-3" x="69.22" y="189.12" width="3.92" height="7.71" transform="translate(-121.8 264.15) rotate(-90)"/>
        <rect class="cls-3" x="13.08" y="288.98" width="3.92" height="7.71" transform="translate(-277.79 307.88) rotate(-90)"/>
        <rect class="cls-3" x="41.15" y="288.98" width="3.92" height="7.71" transform="translate(-249.72 335.95) rotate(-90)"/>
        <rect class="cls-3" x="69.22" y="288.98" width="3.92" height="7.71" transform="translate(-221.66 364.01) rotate(-90)"/>
        <rect class="cls-3" x="95.39" y="276.62" width="7.71" height="3.92"/>
        <rect class="cls-3" x="123.46" y="276.62" width="7.71" height="3.92"/>
        <rect class="cls-3" x="97.29" y="260.39" width="3.92" height="7.71" transform="translate(-165 363.49) rotate(-90)"/>
        <rect class="cls-3" x="97.29" y="246.13" width="3.92" height="7.71" transform="translate(-150.74 349.24) rotate(-90)"/>
        <rect class="cls-3" x="97.29" y="231.88" width="3.92" height="7.71" transform="translate(-136.49 334.99) rotate(-90)"/>
        <rect class="cls-3" x="97.29" y="217.63" width="3.92" height="7.71" transform="translate(-122.23 320.73) rotate(-90)"/>
        <rect class="cls-3" x="125.36" y="260.39" width="3.92" height="7.71" transform="translate(-136.93 391.56) rotate(-90)"/>
        <rect class="cls-3" x="97.29" y="288.98" width="3.92" height="7.71" transform="translate(-193.59 392.08) rotate(-90)"/>
        <rect class="cls-3" x="125.36" y="288.98" width="3.92" height="7.71" transform="translate(-165.52 420.15) rotate(-90)"/>
        <rect class="cls-3" x="151.53" y="276.62" width="7.71" height="3.92"/>
        <rect class="cls-3" x="179.6" y="276.62" width="7.71" height="3.92"/>
        <rect class="cls-3" x="153.43" y="260.39" width="3.92" height="7.71" transform="translate(-108.86 419.63) rotate(-90)"/>
        <rect class="cls-3" x="181.5" y="260.39" width="3.92" height="7.71" transform="translate(-80.79 447.7) rotate(-90)"/>
        <rect class="cls-3" x="153.43" y="288.98" width="3.92" height="7.71" transform="translate(-137.45 448.22) rotate(-90)"/>
        <rect class="cls-3" x="181.5" y="288.98" width="3.92" height="7.71" transform="translate(-109.38 476.29) rotate(-90)"/>
        <rect class="cls-3" x="207.67" y="276.62" width="7.71" height="3.92"/>
        <rect class="cls-3" x="235.73" y="276.62" width="7.72" height="3.92"/>
        <rect class="cls-3" x="209.56" y="260.39" width="3.92" height="7.71" transform="translate(-52.72 475.77) rotate(-90)"/>
        <rect class="cls-3" x="237.63" y="260.39" width="3.92" height="7.72" transform="translate(-24.65 503.84) rotate(-90)"/>
        <rect class="cls-3" x="209.56" y="288.98" width="3.92" height="7.71" transform="translate(-81.31 504.36) rotate(-90)"/>
        <rect class="cls-3" x="237.63" y="288.98" width="3.92" height="7.72" transform="translate(-53.24 532.43) rotate(-90)"/>
        <rect class="cls-3" x="263.8" y="276.62" width="7.72" height="3.92"/>
        <rect class="cls-3" x="291.87" y="276.62" width="7.71" height="3.92"/>
        <rect class="cls-3" x="265.7" y="260.39" width="3.92" height="7.72" transform="translate(3.42 531.91) rotate(-90)"/>
        <rect class="cls-3" x="293.77" y="260.39" width="3.92" height="7.71" transform="translate(31.48 559.97) rotate(-90)"/>
        <rect class="cls-3" x="265.7" y="288.98" width="3.92" height="7.72" transform="translate(-25.17 560.5) rotate(-90)"/>
        <rect class="cls-3" x="293.77" y="288.98" width="3.92" height="7.71" transform="translate(2.89 588.57) rotate(-90)"/>
        <rect class="cls-3" x="319.94" y="276.62" width="7.71" height="3.92"/>
        <rect class="cls-3" x="348.01" y="276.62" width="7.72" height="3.92"/>
        <rect class="cls-3" x="321.84" y="260.39" width="3.92" height="7.71" transform="translate(59.55 588.04) rotate(-90)"/>
        <rect class="cls-3" x="321.84" y="288.98" width="3.92" height="7.71" transform="translate(30.96 616.63) rotate(-90)"/>
        <rect class="cls-3" x="349.91" y="288.98" width="3.92" height="7.72" transform="translate(59.03 644.7) rotate(-90)"/>
        <rect class="cls-3" x="376.08" y="276.62" width="7.71" height="3.92"/>
        <rect class="cls-3" x="404.15" y="276.62" width="7.72" height="3.92"/>
        <rect class="cls-3" x="377.98" y="288.98" width="3.92" height="7.71" transform="translate(87.1 672.77) rotate(-90)"/>
        <rect class="cls-3" x="406.05" y="288.98" width="3.92" height="7.72" transform="translate(115.17 700.84) rotate(-90)"/>
        <rect class="cls-3" x="434.12" y="288.98" width="3.92" height="7.71" transform="translate(143.24 728.91) rotate(-90)"/>
        <rect class="cls-3" x="462.18" y="288.98" width="3.92" height="7.71" transform="translate(171.31 756.98) rotate(-90)"/>
      </g>
    </g>
  </g>
</svg>