<svg width="210mm" height="297mm" viewBox="10 30 210 260" version="1.1" id="svg1" xml:space="preserve"
    xmlns="http://www.w3.org/2000/svg">
    <g id="layer1">
        <path
            style="display:inline;fill:#e1e1e1;fill-opacity:1;stroke:#b85252;stroke-width:1;stroke-dasharray:none;stroke-opacity:.57772624;paint-order:markers fill stroke"
            d="M91.441 45.625c-.924.103-2.114-.303-2.814.5-.19.675-.333-.4-.805-.361-1.26-.235-2.66-.23-3.85.308-.614.28-.996.975-.82 1.639-.353.975-1.293 1.794-2.383 1.694-.478.156-1.582-.242-1.288.594.15 1.318-.15 3.013 1.068 3.919.054.402-.389.863-.48 1.312-.434 1.287-.758 2.621-1.484 3.791-.888 1.601-2.173 3.286-2.33 5.252 0 .643-.768.656-1.122 1.067-.74.584-1.484 1.246-1.768 2.166-.767 1.073-1.573 2.196-2.619 2.998-1.006.189-1.704 1.183-1.758 2.17-.474.856-1.48 1.544-2.488 1.312-1.243-.005-2.165 1.027-2.59 2.104-.754.605-1.796.732-2.727.905-1.03.202-1.296-.981-1.648-1.68-.398-1.025-1.801-1.699-2.758-1.036-.782.642-.853 2.034-2.029 2.182-.869.27-1.373 1.015-2.125 1.416a2.761 2.761 0 0 0-1.57.682c-.123-1.025-1.124-1.637-1.814-2.298-.54-.465-1.145-.882-1.833-1.066-.57-.569-1.258-1.007-2.047-1.2-.863-.74-.842-2.315-2.03-2.72-1.106.176-1.79 1.267-2.288 2.174-.191.801-.59 1.595-1.398 1.944-.963.55-2.504.634-2.844 1.89-.16.645.357 1.179.441 1.768-.614 1.234-1.432 2.398-1.738 3.763-.688 1.01-1.9 1.592-3.106 1.62-.95.24-1.449 1.584-.955 2.408.33.447.85.785.918 1.377.272.653 1.212 1.07.862 1.894-.438.927-.843 2.004-.377 3.008.22.676 1.225 1.254.69 2.026-.51.761-1.09 1.49-1.495 2.31-.483.219-1.036.507-1.06 1.124-.055 1.283-.18 2.74-1.16 3.679a1.28 1.28 0 0 0-1.157 1.412c.023.979-.932 1.862-.397 2.842.268.393-.431.188-.661.363-1.2.383-2.117 1.577-1.985 2.863.004.415-.11.807-.568.854-1.04.856-1.713 2.116-2.291 3.285-.721-.914-2.516-.502-2.645.715-.115 1.146-1.002 2.028-1.026 3.19-.117 1.78-.215 3.703.778 5.278.515 1.08 1.264 2.122 2.432 2.543 1.1.707 1.874 2.067 1.6 3.388.118 1.248 1.068 2.21 1.771 3.181.687.982 1.94 1.064 2.94 1.521a3.167 3.167 0 0 1 1.576 2.768c.29 1.41 1.847 2.014 3.138 1.99.052.999-1.067 1.488-1.045 2.467-.06 1.866.441 3.727.262 5.588-.969 1.177-.255 2.893.748 3.803.265.296 1.156.552.321.763-1.543.688-3.094 1.688-3.897 3.223-.021.62-.74.285-1.166.353-1.423-.06-2.543 1.116-3.236 2.235-.271.594-.197 1.3-.65 1.823-.427 1.07-.47 2.358-.024 3.423.756 1.146 2.104 1.694 2.998 2.685-.162.692-.883 1.23-.655 2.016.123 1.029 1.054 1.605 1.586 2.393.326.858-.26 2.186.778 2.682.816.318 1.833.42 2.289 1.292.39.743 1.17 1.228 2.022 1.11.401-.02 1.405-.147.76.442-.667.335-1.382.832-1.347 1.675-.233 1.916.566 3.723 1.43 5.379.341.664.704 1.395 1.393 1.76-1.558.433-2.66 1.966-2.578 3.58.056 1.49-1.233 2.51-1.994 3.65-.754.858-1.353 1.886-2.22 2.626-1.258.776-2.663 1.567-3.22 3.028-.593 1.283-1.115 2.62-2.01 3.73-1.04 1.798-1.267 4.194-.137 6.005.383.782-.299 1.834.52 2.455 1.083.665 2.44.299 3.633.238a19.92 19.92 0 0 0 3.502-.72c.177.57.566 1.286 1.316 1.214.957-.02 1.908-.155 2.861-.234.73.984 1.29 2.169 2.264 2.927 1.57.468 3.24.624 4.873.618.485.008.904-.253 1.317-.448.527.268 1.064.589 1.482 1.01-.105.829-.653 1.949.28 2.52 1.826 1.153 4.201 1.032 5.947 2.375 1.47.97 2.252 2.691 2.294 4.42-.01.778.621 1.42 1.409 1.354 1.291.044 2.237-1.035 3.49-1.193.91-.107 1.608-.8 1.842-1.667.25-.505.378-1.447 1.154-1.272 1.172.192 2.502.245 3.441 1.041 1.305.647 2.796-.124 3.71-1.091.44-.48 1.198-.572 1.714-.192-.057.99-.365 2.117.337 2.964.906 1.83 1.225 3.918 2.278 5.675.38.73 1.428.632 1.762-.086.876-1.651 1.571-3.4 2.29-5.126.06-.458.422-.854.91-.599 1.359.502 2.331 1.934 3.915 1.852 1.116-.061 2.567.009 3.272-1.028.06-.556.814-.164 1.135-.117 1.202.562 2.664.774 3.864.078.972-.543 1.693-1.49 2.816-1.775 1.037-.294 2.227-.756 3.275-.291.423.655.864 1.355 1.556 1.789.722.656.523 1.777.663 2.659.15.776-.49 1.375-.413 2.152-.079.908.259 1.915 1.184 2.253.667.291 1.456.686 1.443 1.531.162.974.55 1.94.551 2.923-.503.418-.776 1.01-.95 1.615-.51.766-1.324 1.373-1.39 2.39-.126 1.44-.315 2.912-.107 4.35.144.583.725.97.647 1.63.162 1.123-.14 2.333.294 3.4.684.787 2.053.541 2.746-.137.404.7 1.219 1.08 2.004.814.91-.165 1.612-.797 2.317-1.33.876.06 1.964.686 2.672-.16.759-.673.197-1.669-.282-2.313.892-.776 2.429-.585 3.057-1.746.523-.909 1.175-2.102.623-3.133-.489-.371.526-.42.793-.53.585-.311.527.257.755.61.634 1.012 1.62 1.823 2.783 2.124 1.102.823 1.511 2.413 2.925 2.86 1.491.68 3.194.916 4.57 1.82.52 1.013 1.731 1.387 2.665 1.926 1.281.608 2.553 1.308 3.863 1.812 2.004-.048 4.03.136 6.021-.131.74-.152 1.013-.97 1.652-1.323 1.19-.92 2.375-1.905 3.733-2.562 1.207-.306 2.735.515 3.7-.55.423-.457.29-1.117.466-1.647.773-.521 1.604-.994 2.206-1.736 1.334-1.305 2.166-3.126 3.784-4.124.862-.263 1.645-.799 2.003-1.657.806-1.709 1.758-3.4 2.137-5.268.199-1.45-.11-3.003.645-4.34 1.13-2.376 2.241-4.763 3.574-7.034.457-.675 1.347-.937 2.116-1.007 1.29.69 2.837.23 4.132.953.202.17-.317.621-.285.942-.323 1.296-.739 2.642-.6 3.987.4 1.149 1.731 1.52 2.684 2.086.984.183 2.049-.166 2.883-.693.358-.194.39-.643.572-.928.915-.31 1.865-.35 2.819-.539.592-1.3.77-3.042 2.15-3.787.856-.323 2.083-.436 2.352-1.498.204-.8-.51-1.458-.428-2.268-.097-1.004-.05-2.115.719-2.866.805-.866.875-2.078.861-3.196.046-.806 1.203-.926 1.26-1.768.131-1.115-1.21-1.366-1.824-1.996-.58-.95-.087-2.142-.384-3.178-.432-1.386-.483-2.809-.572-4.22-.08-1.418-.144-2.865-.443-4.246.481-.627 1.13-1.205 1.219-2.037.85-1.43 2.485-2.003 3.724-2.996 1.11-1.173 1.14-2.915 1.593-4.387.332-1.418.864-2.692 1.589-3.965.753-1.605 1.047-3.382 1.838-4.977.764-1.579 1.373-3.26 1.38-5.037.023-1.3.272-2.657-.075-3.925.634-.7-.168-1.615-.57-2.226-1.134-1.599-2.681-2.868-3.73-4.524-.435-.879.624-1.52.86-2.298.465-1.03 1.074-2.378.21-3.378-.274-.642-.483-1.534.118-2.05.736-1.323 1.504-2.684 1.852-4.167.128-.527-.19-1.02-.24-1.516.761-.64 1.586-1.487 1.397-2.58-.225-1.622-1.772-2.489-3.018-3.295-1.324-1.062-2.636-2.254-3.455-3.756-.425-1.377-.209-3.14-1.46-4.134-.284-.304-.903-.122-.887-.662-.133-1.048-.83-2.163-1.985-2.212-.71-.165-1.653.434-2.138-.327-.552-.836-1.513-1.25-2.497-1.24-.96.004-2.281-.411-2.896.579-.388.613-1.29.329-1.905.464-.852.031-2.008.059-2.328 1.034-.695 1.155-2.282 1.08-3.46 1.004-.597-.153-1.138-.534-1.794-.5-1.19.09-2.251-.486-3.216-1.093-1.217-.693-2.699-.508-4.019-.296-.983.254-1.188 1.426-1.98 1.959-.644.58-1.32 1.173-2.123 1.518-1.946-1.079-3.254-3.233-5.548-3.695-1.92-.472-3.931-.052-5.856-.434-.93-.502-1.778-1.206-2.852-1.409-3.15-.789-6.43-.372-9.631-.64-.587-.111-.86-.806-1.483-.908-1.108-.332-2.554-.588-3.421.394-.394.553-.398-.506-.594-.775-.343-.94-.739-1.982-1.67-2.48-.28-.495-.298-1.143-.796-1.523-1.017-.98-2.454-1.631-2.975-3.03a4.033 4.033 0 0 0-2.173-2.23c-.591-.47-.204-1.364-.276-2.018-.057-1.209-1.074-2.283-2.207-2.603-.84-.187-1.646.217-2.444.402-.706-.884.072-2.466-1.166-3.033-.565-.372-1.48-.54-1.835.197-.215.438-.503.913-.588.15-.106-.654.095-1.353-.234-1.983-.301-.927-.98-1.884-2.058-1.88a1.973 1.973 0 0 0-1.959.936c-.641.18-1.373.21-1.904.695-1.208.857-.873 2.477-.956 3.748-.108.43.18 1.346-.515 1.252-1.022.082-2.452-.056-3.22.26.508-1.236.321-3.124-1.092-3.651-.44.027-.513-.204-.461-.601-.007-.709-.58-1.217-1.2-1.45.513-.419 1.22-1.04.796-1.767-.26-.628-.945-.825-1.485-1.088-.236-.842-1.108-1.141-1.767-1.568-.123-.33-.932-.431-.591-.766.698-1.14-.335-2.366-1.224-3.027-.563-.358-.991-.922-.868-1.624.013-.796-.097-1.723-.731-2.25.65-.52 1.34-1.41.814-2.253-.507-.853-1.574-.936-2.428-1.186-.693-1.009-.874-2.293-1.283-3.43-.55-.99-2.127-1.378-2.893-.411-.3.557-.452.067-.628-.307-.132-.703.007-1.53.634-1.953a6.516 6.516 0 0 0 1.746-4.32c.071-1.674.338-3.368.112-5.036-.06-.507-.63-.85-.744-1.242.7-.942.05-2.152.326-3.172.287-.35.66-.823 1.045-.96 1.043.705 2.333-.2 2.903-1.116.57-.66.852-1.795.068-2.412-.636-.26.009-.566.189-.943.841-1.564.51-3.495 1.066-5.11 1.529-.527 2.914-1.482 4.067-2.607.966-1.141 1.478-2.615 1.605-4.087.312-.482.802-.935.725-1.583.033-1.168-.913-2.01-1.19-3.074-.128-1.053.588-2.386-.412-3.192-.564-.225-.105-.56-.023-.973.1-.423.06-.946-.305-1.232.492-.3-.385-.103-.51-.158Z"
            id="Mapa" />
        <path style="display:inline;fill:#868686;fill-opacity:1;stroke:#db6060;stroke-opacity:.29698375"
            d="M86.305 47.285c.709.032.589.935 1.215 1.172.755.501 1.948.361 2.337-.535.188-.199.048.653.256.863.129.54.987.511.736 1.149-.146 1.088-.19 2.276.51 3.2.102.348.762.792.382 1.069-.948.908-.418 2.377-1.077 3.436-.762 1.311-2.073 2.337-3.514 2.797-.866-.11-1.468.672-1.549 1.463-.37 1.516-.258 3.108-.826 4.572-.93.748-1.326 2.336-.412 3.248.32.401-.317.62-.648.299-1.35-.225-2.36.995-3.156 1.905-.743.837-.152 2.006-.291 2.942-.701.68-.367 1.85-.004 2.633.31.389.666.77.558 1.32-.102 1.715.026 3.472-.544 5.125-.336.846-.97 1.506-1.612 2.114-.612 1.135-.746 2.604-.24 3.8.453.412-.275.653-.508.936-.536.471-1.164.831-1.834 1.027-.489.302-.381.979-.477 1.414-.464-.033-1.104.148-1.474-.162-.61-.898-1.86-.404-2.616.034-1.057.556-1.848 1.493-2.337 2.569-.42.813-1.417 1.314-1.47 2.307-.902.063-2.144-.118-2.61.883-.34-1.086-.096-2.58-1.17-3.293-.557-.294-1.264-.1-1.739-.603-.545-.417-1.164-.912-1.177-1.655-.406-1.078-1.318-2.142-2.528-2.236-.45-.456-.83-1.083-.927-1.719.184-.624.38-1.416 1.082-1.6 1.061-.855 1.888-2.52 1.005-3.78-.418-.27-.033-.63.091-.941.473-.722.24-1.627-.34-2.208-.535-.573-.325-1.509-1.032-1.969a2.702 2.702 0 0 0-1.672-.693c.285-.662.666-1.28 1.08-1.867.527.9.767 2.256 1.98 2.47 1.569.34 3.193-.137 4.649-.709 1.004-.38 1.205-1.514 1.928-2.123.748-.002 1.6.243 2.229-.33.983-.846 2.085-1.728 2.556-2.974-.066-.47.565-.308.791-.633 1.2-.944 1.993-2.306 3.162-3.275.375-.496.222-1.235.827-1.595.662-.656 1.786-.874 2.013-1.905.327-1.254.63-2.533 1.344-3.638 1.057-1.658 2.021-3.407 2.45-5.343.264-.934 1.047-1.766.773-2.803-.037-.599-.533-.968-.928-1.324-.194-.528-.113-.933.51-.8 1.11-.405 1.83-1.46 2.549-2.347.347-.405.507-.922.65-1.41.275-.254.69-.306 1.049-.277z"
            id="Bochalema" />
        <path style="fill:#868686;fill-opacity:1;stroke:#db6060;stroke-opacity:.29698375"
            d="M103.662 109.36c.424.395.276.798.142 1.261.08 1.003.55 1.974 1.124 2.79.616.744 1.964.539 2.48-.026-.002 1.148.761 2.458 2.041 2.404.741.044 1.39-.393 2.09-.514.416.293.942.734.691 1.301.029.995-.063 2.22.73 2.955.648.42 1.555.542 1.829 1.385.499 1.241 1.326 2.35 2.496 3.031.57.396 1.339.8 1.272 1.602.124.844 1.162.94 1.406 1.713.592 1.038.698 2.493 1.812 3.144 1.01.437 1.696-.657 2.448-1.095.703-.114 1.437.217 1.795.832.987.604 2.237.319 3.338.408 2.635.073 5.37-.131 7.894.764.987.403 1.762 1.324 2.906 1.308 2.213.218 4.688-.346 6.641.988 1.482.926 2.5 2.63 4.275 3.04 1.585.162 2.768-1.157 3.882-2.082.502-.497 1.11-.972 1.378-1.635 1.44-.21 2.693.667 3.922 1.261 1.087.52 2.4.132 3.42.825 1.523.417 3.196.107 4.62-.52.626-.335 1.217-.838 1.509-1.496 1.286-.203 2.905.267 3.857-.885 1.05-.633 2.348.096 2.975 1.004.676.911 1.856.46 2.787.44.629.089.492.968.719 1.42.19.781.983 1.054 1.611 1.369.55 1.358.223 3.04 1.272 4.212a17.734 17.734 0 0 0 4.9 4.473c.3.288.953.684.74 1.135-.625.63-1.806 1.285-1.424 2.335.53 1.15-.19 2.3-.646 3.336-.227.665-.778 1.145-1.016 1.784-.276 1.31-.058 2.669.33 3.93-.178.954-.884 1.738-1.197 2.66-.356.773-.636 1.735-.006 2.457 1.504 2.07 3.277 3.94 5.082 5.748-.684 1.661-.555 3.533-1.02 5.258-.492 1.954-1.614 3.68-2.092 5.643-.322 1.257-.834 2.288-1.458 3.433-.925 1.98-1.208 4.188-1.832 6.251-1.29 1.164-3.11 1.726-4.067 3.263-.464.74-.585 1.748-1.457 2.16-.672.85-.013 1.967-.037 2.931.308 2.306.063 4.657.656 6.936.632 1.085-.099 2.357.364 3.494.173.68.677 1.315 1.212 1.662-.764 1.144-.024 2.733-1.043 3.765-.717.745-1.083 1.754-.965 2.787.003.935.104 1.884.038 2.811-1.543.442-2.923 1.618-3.326 3.215-.255.458-.151 1.36-.892 1.213-.847.188-1.976-.026-2.557.743-.285.303.08.994-.532.949-.774-.026-1.494-.4-2.139-.797.402-1.247.517-2.582 1.098-3.77.408-1.15-.572-2.274-1.68-2.465-1.074-.388-2.285-.123-3.318-.603-1.109-.785-2.461-.003-3.568.388-.952.346-1.453 1.248-1.928 2.07-.275.01-.287-.757-.376-1.053-.311-1.356-.245-2.843-.898-4.096-.33-.614-1.147-.562-1.603-.973-.221-1.797-1.061-3.454-1.736-5.116-.72-2.026-2.575-3.25-4.132-4.59-.899-.745-1.927-1.55-3.17-1.42-.49.06-.93-.191-.793-.746-.046-1.432-1.614-1.955-2.374-2.958-1.157-1.143-1.78-2.763-3.088-3.75-.798-.273-1.77-.32-2.48.172-.77-.022-1.713-.292-2.282.417-.378-1.234-1.713-2.092-2.974-2.082-.7-.015-1.059 1.086-1.796.635-.668-.342-1.203-1.01-1.18-1.728-.251-.996-1.392-1.371-2.317-1.328-.102-1.513-.928-2.864-1.528-4.225-.466-.852-.877-2.003-2-2.113-.89-.308-1.976-.296-2.627.484-.7.555-1.66.874-2.548.738-.422-.659-1.215-.92-1.895-1.23.682-.76 1.75-1.162 2.098-2.195.253-.537.333-1.38 1.094-1.394 1.291-.314 2.69-1.594 2.254-3.029-.234-.583-.92-.934-.834-1.658-.059-1.026.694-1.884.665-2.92-.032-.808.27-1.54.666-2.22.14-.577.197-1.195.67-1.621.504-.808.877-1.808.7-2.766-.332-.642-1.185-.296-1.643-.793-.773-.57-1.613-1.342-1.44-2.406-.005-1.028-.02-2.503-1.22-2.86-.967-.214-1.123-1.4-1.573-2.13-.47-.864-.793-2.107-1.878-2.358-.968-.71-1.622-1.743-2.393-2.644.092-1.3.185-2.6.281-3.9-1.124-1.172-2.393-2.223-2.616-3.909-.049-.74.551-1.379.404-2.147a2.086 2.086 0 0 0-1.016-1.767c.544-1.315.584-2.817.391-4.21-.149-.723-.91-.991-1.487-1.3-.098-2.12.35-4.43-.775-6.36-.354-.729-.89-1.512-1.773-1.562-.713-.521-1.469-1.08-2.39-1.165-1.142-.32-1.953.68-2.785 1.26-1.15.668-2.344-.729-3.529-.118-.48.16-1.016.653-1.457.162a3.311 3.311 0 0 0-1.55-.351c-.021-.964-.159-2.257.738-2.881.93-.038 2.004-.709 2.074-1.698-.439-1.551-2.027-2.521-3.521-2.885-1.452-.18-2.153-1.65-3.088-2.595-.351-.4-.706-.796-1.079-1.176.972.04 2.205.38 2.922-.494.546-.286 1.25-.165 1.73-.621 1.342-.456 2.997.104 4.145-.883.852-1.114.414-2.625.585-3.917.017-.479.071-1.262.765-1.104.773-.006 1.354-.564 1.973-.934l.069.072z"
            id="Toledo" />
        <path style="fill:#868686;fill-opacity:1;stroke:#db6060;stroke-opacity:.29698375"
            d="M105.475 129.467c.789.173 1.228 1.086 2.095 1.094 1.322 1.354 1.134 3.401 1.149 5.147v2.18c.501.412 1.394.543 1.564 1.237.066.71.058 1.525-.539 2.014-.616 1.03.285 2.107.922 2.877.216.4-.35.787-.305 1.226a8.211 8.211 0 0 0 .703 3.586c.424.956 1.668 1.344 1.866 2.4.018.488.13 1.087-.344 1.376-.522 1.266.45 2.501 1.2 3.446.743.89 1.501 1.92 2.592 2.36.955 1.266 1.132 3.098 2.483 4.057.502.171 1.024.472.937 1.096.053 1.165-.13 2.546.884 3.384.58.567 1.19 1.202 1.992 1.428-.54.556-1.054 1.26-1.024 2.059-.237.735-.74 1.367-.735 2.199.013.806-.15 1.63-.719 2.237-.616.982-.063 2.186.235 3.184.124.323.27.648.503.907-.868.578-2.079.596-2.665 1.589-.395.631-.49 1.43-1.123 1.913-.392.324-.793.818-1.24.953-1.232-.336-2.421-.849-3.402-1.676-1.39-.666-2.992-.525-4.484-.742-.958.76-1.78 2.008-3.134 1.984-1.37.248-2.5 1.208-3.914 1.313-.59.09-1.219.204-1.804.094-.383-1.322-1.94-1.711-3.126-1.975-1.146-.226-2.549-.685-3.514.251-.4.32-.774.667-1.163 1-.311-.409-.13-.836.247-1.12.413-.524.969-.673 1.565-.805 1.327-.463 2.878-1.28 3.028-2.847.089-.857-.01-1.812.652-2.483.687-.658.81-1.646.573-2.531-.239-.56.52-.585.687-1.004.47-.752.133-1.77.772-2.458.62-1.023.16-2.334-.72-3.043-.495-.71-.21-1.654-.536-2.438-.242-.911-.673-2.179-1.838-2.096-.424.023-.857-.05-.375-.412.288-.348.164-.895.205-1.233 1.397-.572 2.313-2.148 3.953-2.145 1.205-.143 2.68.466 3.668-.484.818-.871.021-2.275.955-3.059.763-.946-.188-2.279-1.28-2.313-.507-.017-1.03.074-1.414-.365-.51-.395-1.097-.86-1.062-1.568-.19-.978-1.088-1.754-2.097-1.693-.736-.198-.325-1.157-.702-1.66-.5-.985-1.143-2.086-2.22-2.504-.41-.041-.076-.683-.29-.963-.157-.682-.868-.94-1.341-1.343-.076-1.06.385-2.346-.348-3.346-.45-.637-1.077-1.694-.273-2.309.66-.806.303-1.93.601-2.828.981-.798.654-2.268 1.174-3.299.482-.134.981-.464 1.059-.998.857-.02 1.449.944 2.36.734.633.01 1.126-.504 1.671-.665 1.422 1.05 3.448.489 4.62-.678.236-.165.524-.274.816-.242z"
            id="Labateca" />
        <path style="fill:#868686;fill-opacity:1;stroke:#db6060;stroke-opacity:.29698375"
            d="M93.197 163.58c.102.942 1.15 1.163 1.932 1.125.766.226.672 1.267.85 1.9.156 1.03.276 2.252 1.224 2.883-.631.601-.56 1.519-.804 2.273-.453.504-.934 1.07-.879 1.804.049.794.04 1.652-.553 2.261-.651.882-.464 2.008-.711 3.006-.7.895-1.897 1.213-2.988 1.25-.683.079-.853.786-1.086 1.26-.465.228-.968.546-.956 1.15-.069 1.24.046 2.483.067 3.723 1.187-.167 2.438-.362 3.358-1.205.549-.434 1.067-1.226 1.876-.899.895.235 1.976.204 2.682.864.233.47.36.987.547 1.478 2.228-.23 4.614-.124 6.61-1.306.895-.448 1.99-.249 2.796-.913.781-.47 1.408-1.506 2.456-1.172 1.148.071 2.102.717 3.056 1.278 1.148.465 2.323.934 3.225 1.816.425.42 1.006.62 1.503.874.3.607.9 1.028 1.6.927 1.197-.132 2.556.036 3.592-.684.36-.26.562-.986 1.123-.63.944.761 1.333 2.007 1.901 3.046.341.622.441 1.312.375 2.004.113 1.026 1.273 1.31 2.13 1.397.235.253.187.743.438 1.038.639 1.146 1.781 2.234 3.197 2.038.63-.02 1.32-.145 1.77-.615 1.222.46.95 2.426 2.326 2.71.797.135 1.348-.599 1.8-1.122.638.632 1.471.098 2.104-.23.516-.283.7.576 1.023.825.954 1.537 2.184 2.875 3.535 4.067.654.557.183 1.628.944 2.135.885.735 2.206.116 3.068.923 1.325 1.04 2.752 2.018 3.806 3.346.923 1.545 1.612 3.248 2.073 4.988.08.742-.04 1.702.787 2.079.598.363 1.551.5 1.573 1.371.364 1.449.255 3.038.923 4.396.132.473 1.077.482.634 1.01-.799 1.9-2.028 3.642-2.48 5.671-.193 1.501.07 3.086-.636 4.493-.606 1.327-1.067 2.757-1.924 3.945-.705.384-1.562.554-2.097 1.22-1.517 1.484-2.458 3.557-4.293 4.7-.788.278-1.528.904-1.501 1.81.135.665-.392.548-.877.487-1.186-.084-2.425.092-3.373.867-1.438.964-2.87 1.965-4.134 3.149-1.354.27-2.773.16-4.145.074-1.77-.393-3.298-1.336-4.898-2.12-.496-.247-.936-.589-1.137-1.111-.922-.913-2.311-1.073-3.474-1.546-1.117-.37-2.45-.66-3.002-1.834-.55-.89-1.293-1.782-2.395-1.924-.971-.375-1.314-1.401-1.737-2.245-.782-.87-2.086-.362-3.066-.2-.749.152-1.843.347-1.838 1.328-.089.698.061 1.44.283 2.06-.163 1.022-1.205 1.357-2.066 1.6-1.182.287-2.026 1.521-1.852 2.718-.99-.258-1.803.447-2.47 1.068-.364.476-.606.12-.79-.245-.505-.772-1.646-.711-2.277-.239-.011-1.25-.239-2.532-.82-3.64-.133-1.299-.21-2.612.117-3.864.48-.736 1.28-1.312 1.443-2.222.38-.633 1.136-1.165.922-2.01-.282-1.452-.59-2.91-.976-4.336-.458-1.044-1.852-1.077-2.41-1.992.04-.414.507-.71.48-1.184.131-1.277.132-2.59-.04-3.863-.282-1.173-1.818-1.373-2.179-2.521-.895-1.293-2.708-1.255-4.105-1.08a8.04 8.04 0 0 0-4.46 2.125c-.638.546-1.569.563-2.267.125-1.046-.269-2.25-.464-3.27-.016-.39.288-.425.905-1.016.928-.62.203-1.303.21-1.805-.263-1.074-.664-2.05-1.936-3.469-1.597-.89.067-1.938.33-2.236 1.295-.533 1.228-1.055 2.463-1.59 3.692a25.289 25.289 0 0 0-1.596-4.29c-.31-.983.453-2.123-.268-2.988-1.146-.693-2.678-1.009-3.923-.368-.584.223-1.112.626-1.39 1.165-.34.32-.756.301-1.054-.045-1.36-.67-2.91-.83-4.387-1.084-1.47-.037-2.403 1.376-2.758 2.643-.337.927-1.835.57-1.934-.356-.174-1.262-.15-2.591-.737-3.765-.204-.58-.692-.958-1.145-1.315-.233-.667.73-.926.721-1.588.172-.75-.54-1.398-1.268-1.33-.525-.132-1.139-.787-.605-1.278.677-1.307 2.116-2.306 2.12-3.904-.112-1.292.752-2.392.805-3.669.328-2.134.212-4.338.676-6.397.419-.624.698-1.368.696-2.101.228-.84 1.245-1.254 1.304-2.176.412-.86 1.392-1.75.883-2.787-.147-.363-.71-.375-.617-.852-.03-.598-.046-1.246-.293-1.822.867-.255.774-1.269.863-1.977.249-.693.967-1.129 1.102-1.896.068-.73.836-1.038 1.48-.848.806.246 1.627-.172 1.983-.918.298-.342.491-1.108 1.06-.88 1.164.07 1.823-1.209 1.735-2.233-.061-.77.794-1.152.758-1.922.108-.85-.335-1.64-.948-2.191-.12-.375.537-.579.528-1.006.246-1.12.26-2.32.049-3.444-.176-.748-1.199-.625-1.385-1.386-.214-.504-.535-1.232-.192-1.711.494-.094.454-.83.828-.889.934-.093 1.578-.939 1.965-1.723.155.69.563 1.366 1.262 1.586.039.62.408 1.189.95 1.489.046.682-.172 1.383-.672 1.846-.495 1.148.013 2.536.764 3.46.452.652 1.48.308 1.802 1.11.383 1.104 1.086 2.046 1.846 2.924.558.522.471 1.467 1.148 1.859.82.28 2.164.11 2.314-.936-.086-.51.474-.187.754-.392 1.04-.46 2.016-1.413 2.032-2.613.233-.682.392-1.625 1.132-1.91 1.16-.845 2.131-2.165 1.993-3.669-.134-.555.115-.718.587-.838.81-.361 1.092-1.395 1.942-1.654 1.433.075 2.02-1.455 2.944-2.244.213-.24.583-.422.73-.014.655.612 1.705.136 2.273-.365-.006.111.081-.186.076-.08z"
            id="Chitaga" />
        <path style="fill:#868686;fill-opacity:1;stroke:#db6060;stroke-opacity:.29698375"
            d="M35.43 152.473c.681.348 1.448.564 2.205.351.614-.065-.13.46-.123.793-.366 1.119.655 1.947 1.307 2.69.52.662.161 1.648.793 2.276.398.61 1.131.797 1.8.88.672.335.282 1.17.638 1.712.366.944.93 1.817 1.192 2.792.839.872 2.232.678 3.309.449.91-.125 1.682-.905 1.578-1.861-.038-.546.636.041.834.218.748.911 2.129 1.776 3.273 1.038.387-.253.98-.89 1.336-.316.733.593 1.628.928 2.448 1.38.59-.708 1.108-1.729 2.183-1.675.617-.225.559.122.568.591.303 1.17 1.762 1.164 2.733 1.12.724-.02 1.576-.135 2.105.47.309.272.855.337 1.141.385a5.862 5.862 0 0 0 .217 3.865c.251.598.84.908 1.342 1.24.19.71.064 1.515-.467 2.041-.506 1.107-.317 2.652.762 3.348-.833.375-.725 1.424-.768 2.181-.5-.046-.981.21-1.373.405-.685.134-.876 1.02-1.24 1.427-.89-.6-1.876.085-2.51.725-.6.54-1.141 1.207-1.281 2.014-.542.424-1.022 1.01-.98 1.75-.008.308.068.769-.397.734-.947.327-.574 1.454-.45 2.184.156 1.046.37 2.11.758 3.08-.42.377-.614.895-.808 1.396-.648.658-1.297 1.443-1.243 2.43-.202.87-.788 1.615-.806 2.542-.36 2.283-.167 4.644-.744 6.89-.356.546-.873 1.077-.756 1.8.173.768.054 1.563-.461 2.18-.45.789-1.167 1.363-1.732 2.047-.342.868-.075 1.892.29 2.717.241.527.87.687 1.194 1.11-.165.901-.668 2.254.43 2.769.872.197.956 1.178 1.117 1.9-1.34-2.085-3.692-3.243-6.066-3.694-.497-.18-1.172-.195-1.536-.587.115-.758.706-1.749-.079-2.385-1.106-.89-2.522-2.028-4.028-1.447-1.284.364-2.74.438-4.001-.018-1.248-.854-1.625-2.755-3.214-3.13-.895-.078-1.82-.106-2.686.171-.11-.91-1.072-1.388-1.913-1.204-1.556.248-3.002.801-4.612.81-.56.071-1.028.125-.86-.55-.035-1.268-1.184-2.232-.97-3.542.041-1.222.838-2.177 1.49-3.135.76-1.168.981-2.655 1.957-3.674 1.026-.677 2.079-1.345 2.865-2.315 1.293-1.523 2.6-3.064 3.623-4.783.696-1.052-.102-2.673 1.092-3.442.986-.514 2.424-.537 2.903-1.727.35-1.023-.748-1.705-1.59-1.934-.88-.552-1.137-1.57-1.605-2.43-.334-.896-.919-1.899-.594-2.867.668-.434 1.61-.881 1.504-1.841.116-.733.455-1.774-.415-2.19-.77-.458-1.762-.7-2.54-.133-.63-.528-.624-1.655-1.542-1.912-.477-.185-.996-.209-1.49-.328.265-.706.49-1.583-.136-2.177-.413-.569-1.18-.901-1.436-1.555.388-.858 1.003-1.916.344-2.813-.84-1.28-2.717-1.708-3.127-3.291-.046-.917.794-1.599.783-2.525.328-.673.99-1.584 1.853-1.268 1.098.156 2.604-.421 2.67-1.684.752-1.267 2.23-1.858 3.528-2.42.134-.03.274-.088.414-.048z"
            id="Silos" />
        <path style="fill:#868686;fill-opacity:1;stroke:#db6060;stroke-opacity:.29698375"
            d="M64.217 114.084c.75-.088 1.518.603 2.205.04-.192 1.104.913 1.853 1.695 2.41.801.654 1.965.536 2.695 1.282.4.275 1 .257 1.377.358-.266.508-.85.952-.626 1.615.133.588.747 1.02.517 1.685-.048.65-.345 1.667.461 1.954.736-.054 1.345-.538 1.916-.961.24 1.08-.016 2.31.753 3.226.754.9 1.367 1.943 1.493 3.131a.982.982 0 0 0 1.444.738c1.141-.319 2.598-.475 3.14-1.712.383-1.058 1.512-1.533 2.573-1.51 1.2.066 2.42-.193 3.387-.94 1.018-.78 2.413-1.248 3.628-.622.575.261 1.166.542 1.633.972-.544.519-1.294 1.019-1.195 1.887.076 1.298.076 2.628.4 3.892.132.484.628.707 1.055.817-.079.766-.906 1.153-.916 1.947-.14.789.114 1.787-.655 2.32-.754.916-.314 2.218.005 3.226.176.786 1.23 1.472.624 2.307-.695 1.158.215 2.606 1.35 3.057.436.522.155 1.448.867 1.817 1.07.267 1.663 1.401 1.965 2.38-.052 1.232 1.12 2.21 2.297 2.21.425.782.652 1.696 1.278 2.374.609.685 1.322 1.65 2.347 1.543-.123.523-.146 1.06-.184 1.594-2.19-.247-4.602.193-6.197 1.817-.498.513-1.36.792-1.904.173-.673-.677-1.318-1.495-2.3-1.718-.02-1.688-.205-3.425-.927-4.977-.248-.648-.921-.86-1.459-1.176-.734-.794-.59-2.379-1.838-2.658-.501.006-.588-.042-.299-.484.338-1.01.394-2.477-.765-2.98-1.1-.507-2.182-1.377-3.452-1.263-.907.244-1.676.87-2.636.977-1.603.436-3.452.286-4.808 1.377-.46.185-1.148.42-1.483-.062-.969-.37-2.06-.06-3.057.063-1.372.168-1.776 1.722-1.834 2.884-.121.325.202 1.322-.329 1.053-.439-.057-.347-.363-.298-.669.033-.72-.74-.98-1.205-1.302.24-.886-.163-1.764-.775-2.395-.585-.796-.088-1.833.045-2.705.281-.785.54-1.688.017-2.441-.567-1.147-1.456-2.138-2.603-2.717-.298-.282.42-.623.316-1.054a1.966 1.966 0 0 0-1.103-2.28c-.577-.24-.83-.836-1.319-1.16-.932-.434-1.976-.141-2.877.205-.643.047-1.482-.06-1.71-.758-.804-.826-2.588-.644-2.946.543-.63.06-1.397.145-1.723.777-.62.06-1.353.23-1.573.921-.44 1.564-2.197 2.079-3.59 2.46-1.07.176-2.398.746-3.305-.145-.562-.278-.439-1.105-1.11-1.232-.526-.138-1.5.05-1.449-.777.045-.706-.595-1.185-1.213-1.31-.087-1.093.336-2.129.919-3.025.324-.519.173-1.135.267-1.688.585-.555.829-1.328 1.119-2.051.674-.82 1.873-1.222 2.183-2.336.772-.995 2.138-1.288 2.954-2.257.21-.282.445-.625.85-.503 1.482-.338 2.82-1.184 4.003-2.117.57-.493.689-1.316 1.352-1.741.813-.828 1.875-1.294 2.916-1.748.607-.282.833-.946 1.26-1.39 1.409-.127 2.68-.875 4.1-.986.748-.107 1.5-.179 2.257-.182z"
            id="Pamplona" />
        <path style="fill:#868686;fill-opacity:1;stroke:#db6060;stroke-opacity:.29698375"
            d="M82.896 145.836c.816.321 1.793.626 2.303 1.385-.126.443-.699.704-.716 1.236-.27.832.232 1.891 1.194 1.872.843-.09.894.911 1.167 1.472.233.764.845 1.369 1.646 1.486.632.956.716 2.196.881 3.315.12.855-.242 2.174.825 2.535.659.116 1.499.536 1.456 1.31-.26.378-.325.89-.435 1.287-.931.171-1.957.313-2.595 1.106-.66.64-1.19 1.697-2.251 1.625-1.048.14-1.297 1.363-2.139 1.8-.936-.068-1.445.894-1.414 1.718-.044.808.086 1.784-.693 2.304-.447.505-1.21.577-1.484 1.25-.545.866-.955 1.837-1.088 2.85-.478.775-1.686.187-2.131 1.037-.214.728-.471-.365-.772-.528-.666-.613-1.156-1.387-1.351-2.274-.378-.945-1.201-1.805-2.252-1.892a.856.856 0 0 1-.106-1.279c.398-1.06.62-2.24.497-3.369-.074-.672-1.064-.713-1.002-1.418-.113-.65-.791-.859-1.227-1.207-.362-.794-.109-2.082-1.13-2.418-1.123-.156-2.224.688-2.48 1.78-.184.316-.09 1.003-.52 1.074-.528.003-.836-.587-1.408-.472-.338-.12-.935.284-1.116-.041-.276-.897-1.328-.631-2.02-.52-.589.07-1.184.107-1.777.09.101-.64.044-1.466-.63-1.764-.202-.67.031-1.525-.55-2.067.643-.468 1.679-.828 1.608-1.809.147-.25.778.05 1.1-.062 1.075.02 1.756-1.049 1.704-2.04.072-.358-.156-.978.373-1.028.75-.501 1.376-1.397 1.35-2.319-.244-.698-1.031-.968-1.389-1.586.407-.164.615-.59.678-1.003.254.571 1.28.519 1.122 1.299-.052.62.426 1.205 1.067 1.167.701.318 1.286 1.39 2.174.928 1.095-.798 1.236-2.331 1.274-3.586-.07-.759.65-1.17 1.32-1.166.503-.25.598.323 1.013.42 1.326.336 2.709-.187 3.852-.842 1.962-.688 4.18-.578 6.004-1.656z"
            id="Cacota" />
        <path style="fill:#868686;fill-opacity:1;stroke:#db6060;stroke-opacity:.29698375"
            d="M55.627 134.564c.889.755 2.115 1.245 3.289 1.137.519-.108.88-.582 1.42-.629.28.703 1.085.988 1.646 1.389-.45.77-.497 1.84-.123 2.654.569.719 1.61.866 2.111 1.677.418.486.74 1.136.407 1.749-.292 1.175-.061 2.428-.41 3.582-.818.602-.716 1.68-.828 2.568-.374.295-.69.73-.698 1.25-.124.9.053 1.972.94 2.428.355.297-.704.104-.756.53-.51.663-.4 1.615-.594 2.347-.97-.033-2.382-.238-2.843.867-.162.327-.016.728-.069 1.024-1.274.308-2.2 1.954-1.395 3.105.275.221.74.698.19.922-.953.104-1.752.64-2.557 1.104-.535-.274-.892-.987-1.595-.973a3.674 3.674 0 0 0-2.408.86c-.95-1.055-2.31-2.18-3.828-1.753-.861.197-1.264 1.14-1.28 1.907-.39.022-.819.151-1.059.48-.666-.463-.474-1.39-1.01-1.959-.56-.53-.145-1.332-.585-1.916-.404-.76-1.152-1.348-2.012-1.434-.884-.57-.347-1.822-1.095-2.5-.276-.344-.639-.602-.973-.884.59-.563 1.372-1.528.62-2.282-.87-.951-2.253-.826-3.396-1.093-.623-.6-1.038-1.53-1.959-1.768-.443-.285-.953-1.063-.42-1.478.453-1.126.027-2.384.006-3.555-.052-.975-.302-2.01-.23-2.948.536-.621 1.054-1.531 2.012-1.408 1.071-.072 2.288-.694 2.605-1.774.127-.604-.471-1.212-.322-1.749.323-.106 1.022-.278.844.287.118.984 1.093 1.64 2.033 1.672 1.015.44 1.447 1.884 2.717 1.783 2.6-.056 5.456-.437 7.455-2.258.517-.374.623-1.158 1.21-1.416.543.043.864-.425 1.286-.625.668-.014 1.35-.303 1.654-.92z"
            id="Mutiscua" />
        <path style="fill:#868686;fill-opacity:1;stroke:#db6060;stroke-opacity:.29698375"
            d="M79.152 92.342c.473 1.438 2.695 1.348 3.32.074.37.984.758 2.311 1.99 2.453.803-.05.45.372.286.895a2.337 2.337 0 0 0 .553 2.271c.295 1.049-.07 2.315.813 3.177.35.48 1.128.714 1.35 1.177-.812.456-.876 1.669-.482 2.422.457.53 1.318.17 1.73.795.241.366.793.428 1.003.733a1.3 1.3 0 0 0 .933 1.098c-.251.782-.34 1.78.159 2.481.22.259.597.284.859.432-.164.958.57 1.995 1.576 1.982.486.402.21 1.295-.347 1.469-.434.429-.223 1.105-.143 1.636-.992-.1-2.008-.281-2.816-.894-.867-.413-1.784.33-1.93 1.194-.357.74-.154 1.785.72 2.033 1.427.776 2.355 2.2 3.454 3.36.684.824 1.562 1.568 2.672 1.669.578.177 1.35.543 1.646.959-1.136.495-2.16 1.564-2.055 2.887-.068.924.084 1.92-.218 2.79-.248.15-.795 1.031-.837.539-.04-.748-.311-1.564-.113-2.33.746-.413 1.248-1.196 1.157-2.068.116-.87-.464-1.612-1.24-1.935-1.669-1.027-3.821-1.446-5.645-.569-1.221.534-2.318 1.54-3.745 1.402-1.429-.042-3.109.344-3.794 1.744-.272.54-.534 1.223-1.243 1.247-.482.202-.355-.577-.542-.861-.287-.955-1-1.663-1.608-2.409.015-.821-.021-1.687-.278-2.494-.235-.752-.39-1.993-1.42-1.965-.418.046-1.085.128-1.274-.298.475-.764.517-1.788.29-2.637-.455-.927-1.757-.188-2.361-.94-.865-.649-2.128-.562-2.883-1.361-.296-.834.817-1.815.028-2.553-.424-.174-.738-.38-.6-.903.073-2.022.401-4.213-.705-6.04-.133-.474-.812-.539-.644-1.1.229-.424.461-.948.095-1.39-.398-.6-.964-1.064-1.427-1.612.606-.047.973-.555 1.334-.957.923-.144 2.172-.009 2.652-1.023.111-.415.145-.867.601-1.067 1.018-.91 1.313-2.589 2.582-3.156.79.554 1.87.364 2.79.371.824-.014 1.864-.225 2.052-1.18.163-.807 1.107-1.147 1.682-1.636z"
            id="Pamplonita" />
        <path style="fill:#868686;fill-opacity:1;stroke:#db6060;stroke-opacity:.29698375"
            d="M42.893 73.916c.413.874.962 1.867 2.021 2.015.648.103.842.857 1.485 1.01.999.404 2.158.993 2.523 2.073-.076 1.098 1.13 1.46 1.992 1.636.77.257 1.23-.482 1.764-.851.81-.141 1.48-.688 2.082-1.223.021.795.663 1.414 1.445 1.467.513.043 1.027.308 1.02.887.045.522.346 1.002.516 1.445-.14.914-.64 2.042.196 2.786.543.369-.217.676-.456.922-1.016.979-1.83 2.24-2.192 3.61-.175.871.815 1.305 1.053 2.004.165.9 1.117 1.594 2.02 1.471.702.377.867 1.181 1.001 1.887.632 1.241 1.957 2.195 3.375 2.205.001.555.135 1.098.379 1.583.27 1.228-.297 2.826.883 3.702.427.345 1.085.698.852 1.361-.19.935.352 1.761.921 2.442.916 1.38.55 3.118.362 4.651-.044.487-.168 1.035-.762 1-2.025.255-4.09.322-6.054.939-.983.357-2.181.164-3.02.857-.438.48-.314 1.562-1.23 1.42-1.208.357-2.123 1.339-3.05 2.147a4.34 4.34 0 0 0-1.06 1.402c-1.033.786-2.245 1.456-3.56 1.543-1.022.274-1.41 1.408-2.325 1.87-.898.599-2.068 1.066-2.406 2.196-.645.903-1.962 1.239-2.238 2.424-.087.894-.811 1.477-1.162 2.244-.207.579.181 1.245-.32 1.738-.511.744-1.242 1.636-.964 2.584.454.366-.072.975-.533 1.035-.803.147-1.09.997-.928 1.72.031.49.13.984.077 1.476-.487.081-1.044.188-1.51.027-.312-1.133-1.656-1.108-2.567-1.405-.615-.05-.206-.746-.416-1.109-.49-1.48-1.6-2.846-3.059-3.446-.615-.263-1.436-.092-1.819-.75-.738-.816-1.406-1.807-1.354-2.955-.299-1.45-.844-3.072-2.167-3.89-.734-.305-1.468-.705-1.8-1.479-.805-1.434-1.74-3.18-1.08-4.845.362-.617.766-1.225.94-1.93 1.127.585 2.363-.343 2.857-1.35.29-.82.686-1.654 1.436-2.165 1.129-.216 1.4-1.619 1.431-2.594-.04-.584.505-1.16 1.096-.928.918-.05 1.675-.848 2.004-1.656.186-.7-.762-1.292-.21-1.943.25-.366.171-.884.31-1.233 1.15-.708 1.65-2.112 1.987-3.357.197-.542-.118-1.35.53-1.625.657-.584.786-1.573 1.517-2.061 1.133-1.214 1.183-3.273.008-4.476-.016-1.093.536-2.167.4-3.287.058-1.003-.935-1.504-1.214-2.38-.349-.43-.218-.566.27-.654 1.363-.688 2.921-1.605 3.314-3.197.155-1.41 1.446-2.398 1.584-3.832.067-.441.071-.909-.113-1.324 1.693-.547 3.473-1.753 3.81-3.647.04-.033.028-.38.108-.187z"
            id="Cucutilla" />
    </g>
</svg>