<svg id="Grupo_11468" data-name="Grupo 11468" xmlns="http://www.w3.org/2000/svg" width="133.302" height="62.579" viewBox="0 0 133.302 62.579">
  <g id="logo-vue" transform="translate(0 0)">
    <g id="Grupo_25" data-name="Grupo 25" transform="translate(0.318 13.291)">
      <g id="Grupo_24" data-name="Grupo 24" transform="translate(0 0)">
        <path id="Trazado_26" data-name="Trazado 26" d="M64.122,89.57,29.658,84.121A4.44,4.44,0,0,1,25.2,79.663V40.6l38.922,7.183c2.371.5,4.458,1.981,4.458,4.458v33.9C68.58,88.58,66.6,89.57,64.122,89.57Z" transform="translate(-25.2 -40.6)" fill="#f1f1f6"/>
      </g>
    </g>
    <g id="Grupo_27" data-name="Grupo 27" transform="translate(0 12.901)">
      <g id="Grupo_26" data-name="Grupo 26">
        <path id="Trazado_27" data-name="Trazado 27" d="M63.54,89.178H63.5L29.041,83.729A4.772,4.772,0,0,1,24.3,78.952V39.5l39.311,7.254h0a4.765,4.765,0,0,1,4.706,4.777v33.9C68.317,87.763,66.548,89.178,63.54,89.178Zm-38.568-48.9V78.952a4.145,4.145,0,0,0,4.14,4.14l34.5,5.449c1.557,0,4.1-.425,4.1-3.114V51.53a4.145,4.145,0,0,0-4.14-4.14Z" transform="translate(-24.3 -39.5)" fill="#283483"/>
      </g>
    </g>
    <g id="Grupo_29" data-name="Grupo 29" transform="translate(6.015 0.389)">
      <g id="Grupo_28" data-name="Grupo 28" transform="translate(0 0)">
        <path id="Trazado_28" data-name="Trazado 28" d="M80.222,63.97,45.758,58.521A4.44,4.44,0,0,1,41.3,54.063V15l38.922,7.183c2.371.5,4.458,1.981,4.458,4.458v33.9C84.645,62.98,82.663,63.97,80.222,63.97Z" transform="translate(-41.3 -15)" fill="#f6f9f2"/>
      </g>
    </g>
    <g id="Grupo_56" data-name="Grupo 56" transform="translate(65.578 8.669)">
      <g id="Grupo_30" data-name="Grupo 30" transform="translate(0 0)">
        <path id="Trazado_29" data-name="Trazado 29" d="M187.5,39.5h1.557l.708,4.317.106.778.248,1.7c.035.283.071.566.106.778a4.373,4.373,0,0,1,.071.637l.071.566c0-.106.035-.212.035-.318a1.251,1.251,0,0,1,.035-.212l.212-1.345.283-1.769c.035-.177.035-.318.071-.46s.035-.248.071-.354l.743-4.317H193.3L191,51.212h-1.238Z" transform="translate(-187.146 -39.111)" fill="#283483"/>
        <path id="Trazado_30" data-name="Trazado 30" d="M190.64,50.82h-1.769L186.5,38.435h2.229l1.1,6.829.283-1.875c.035-.142.035-.248.071-.389l.814-4.6h2.123Zm-1.238-.637h.708l2.158-11.075h-.814l-.708,4.069c-.035.106-.035.212-.071.354l-.531,3.574c0,.071-.035.142-.035.212l-.354,2.76-.955-6.935-.672-4.069h-.885Z" transform="translate(-186.5 -38.4)" fill="#283483"/>
      </g>
      <g id="Grupo_31" data-name="Grupo 31" transform="translate(7.82 0.389)">
        <path id="Trazado_31" data-name="Trazado 31" d="M208.6,39.5h4.211v1.345h-2.618V44.56h2.335V45.9h-2.335v4h2.618v1.345H208.6Z" transform="translate(-208.6 -39.5)" fill="#999798"/>
      </g>
      <g id="Grupo_32" data-name="Grupo 32" transform="translate(14.224 0.389)">
        <path id="Trazado_32" data-name="Trazado 32" d="M226.735,39.5h1.486l1.557,4.671a40.555,40.555,0,0,1,1.2,4.246c-.142-.92-.212-1.734-.283-2.477s-.106-1.415-.106-2.088V39.5h1.592V51.212H230.7l-1.769-5.272c-.177-.5-.318-.991-.46-1.521s-.283-1.061-.389-1.628c0-.071-.035-.142-.035-.248-.035-.106-.035-.212-.071-.354,0,.142.035.248.035.354s.035.177.035.248l.071,1.2.071,1.451v.672l.071,5.1H226.7V39.5Z" transform="translate(-226.7 -39.5)" fill="#999798"/>
      </g>
      <g id="Grupo_33" data-name="Grupo 33" transform="translate(20.593 0.389)">
        <path id="Trazado_33" data-name="Trazado 33" d="M244.7,39.5h5.131v1.38h-1.769V51.212H246.5V40.88h-1.8Z" transform="translate(-244.7 -39.5)" fill="#999798"/>
      </g>
      <g id="Grupo_34" data-name="Grupo 34" transform="translate(25.511 0.389)">
        <path id="Trazado_34" data-name="Trazado 34" d="M261.148,39.5h1.238L264.9,51.212h-1.557l-.425-2.3h-2.335l-.46,2.3H258.6Zm1.521,8.209-.354-1.875c-.248-1.274-.425-2.618-.566-4.069-.071.708-.177,1.415-.283,2.123s-.248,1.486-.389,2.3l-.283,1.486h1.875Z" transform="translate(-258.6 -39.5)" fill="#999798"/>
      </g>
      <g id="Grupo_35" data-name="Grupo 35" transform="translate(32.73 0.389)">
        <path id="Trazado_35" data-name="Trazado 35" d="M279,39.5h1.486l1.557,4.671a40.577,40.577,0,0,1,1.2,4.246c-.142-.92-.212-1.734-.283-2.477s-.106-1.415-.106-2.088V39.5h1.592V51.212h-1.486l-1.769-5.272c-.177-.5-.318-.991-.46-1.521s-.283-1.061-.389-1.628c0-.071-.035-.142-.035-.248a1.558,1.558,0,0,0-.071-.354c0,.142.035.248.035.354s.035.177.035.248l.071,1.2.071,1.451v.672l.071,5.1H279Z" transform="translate(-279 -39.5)" fill="#999798"/>
      </g>
      <g id="Grupo_36" data-name="Grupo 36" transform="translate(40.019 0.389)">
        <path id="Trazado_36" data-name="Trazado 36" d="M299.6,39.5h1.592V51.212H299.6Z" transform="translate(-299.6 -39.5)" fill="#999798"/>
      </g>
      <g id="Grupo_37" data-name="Grupo 37" transform="translate(43.415 0.389)">
        <path id="Trazado_37" data-name="Trazado 37" d="M309.2,39.5h1.592V49.9h2.583v1.345H309.2Z" transform="translate(-309.2 -39.5)" fill="#999798"/>
      </g>
      <g id="Grupo_38" data-name="Grupo 38" transform="translate(48.546 0.389)">
        <path id="Trazado_38" data-name="Trazado 38" d="M323.7,39.5h1.592V49.9h2.583v1.345H323.7Z" transform="translate(-323.7 -39.5)" fill="#999798"/>
      </g>
      <g id="Grupo_39" data-name="Grupo 39" transform="translate(53.429 0.389)">
        <path id="Trazado_39" data-name="Trazado 39" d="M340.048,39.5h1.238L343.8,51.212h-1.557l-.425-2.3h-2.335l-.46,2.3H337.5Zm1.521,8.209-.354-1.875c-.248-1.274-.425-2.618-.566-4.069-.071.708-.177,1.415-.283,2.123s-.248,1.486-.389,2.3l-.283,1.486h1.875Z" transform="translate(-337.5 -39.5)" fill="#999798"/>
      </g>
      <g id="Grupo_40" data-name="Grupo 40" transform="translate(0.955 16.985)">
        <path id="Trazado_40" data-name="Trazado 40" d="M190.035,86.191h1.557v8.28a4.417,4.417,0,0,0,.212,1.7.938.938,0,0,0,.92.425c.46,0,.778-.106.92-.354a3.5,3.5,0,0,0,.212-1.521V86.191h1.557v8.527a4.109,4.109,0,0,1-.6,2.583,2.777,2.777,0,0,1-2.123.778,2.418,2.418,0,0,1-2.229-.991,5.28,5.28,0,0,1-.46-2.583V86.191Zm3.538-3.291.814.92-1.911,1.345-.566-.637Z" transform="translate(-189.717 -82.405)" fill="#37a4db"/>
        <path id="Trazado_41" data-name="Trazado 41" d="M192.208,97.458a2.817,2.817,0,0,1-2.512-1.132,5.136,5.136,0,0,1-.5-2.76v-8.6h2.194v8.6a3.608,3.608,0,0,0,.177,1.521c.035.071.141.248.637.248.248,0,.531-.035.637-.212a2.849,2.849,0,0,0,.177-1.345V84.932h2.194v8.846a4.182,4.182,0,0,1-.672,2.8A2.845,2.845,0,0,1,192.208,97.458ZM189.872,85.6v7.961a4.583,4.583,0,0,0,.389,2.406,2.137,2.137,0,0,0,1.946.849,2.469,2.469,0,0,0,1.911-.672,3.8,3.8,0,0,0,.5-2.371V85.6h-.885v8.174a3.013,3.013,0,0,1-.283,1.663,1.274,1.274,0,0,1-1.2.531,1.29,1.29,0,0,1-1.2-.566,4.277,4.277,0,0,1-.283-1.84V85.6Zm2.088-.955-.955-1.1,2.088-2.052,1.309,1.415Zm-.071-1.062.177.212,1.345-.955-.354-.389Z" transform="translate(-189.2 -81.5)" fill="#37a4db"/>
      </g>
      <g id="Grupo_41" data-name="Grupo 41" transform="translate(9.27 20.96)">
        <path id="Trazado_42" data-name="Trazado 42" d="M212.7,92.2h1.486l1.557,4.671a40.565,40.565,0,0,1,1.2,4.246c-.142-.92-.212-1.734-.283-2.477s-.106-1.415-.106-2.088V92.2h1.592v11.712H216.7l-1.769-5.272c-.177-.5-.318-.991-.46-1.521s-.283-1.061-.389-1.628c0-.071-.035-.142-.035-.248-.035-.106-.035-.212-.071-.354,0,.142.035.248.035.354s.035.177.035.248l.071,1.2.071,1.451v.672l.071,5.1H212.7Z" transform="translate(-212.7 -92.2)" fill="#999798"/>
      </g>
      <g id="Grupo_42" data-name="Grupo 42" transform="translate(16.559 20.96)">
        <path id="Trazado_43" data-name="Trazado 43" d="M233.3,92.2h1.592v11.712H233.3Z" transform="translate(-233.3 -92.2)" fill="#999798"/>
      </g>
      <g id="Grupo_43" data-name="Grupo 43" transform="translate(19.673 20.812)">
        <path id="Trazado_44" data-name="Trazado 44" d="M246.983,92.109v1.415a2.148,2.148,0,0,0-1.026-.283,1.61,1.61,0,0,0-.955.283,2.108,2.108,0,0,0-.672.849,5.07,5.07,0,0,0-.389,1.451,16.6,16.6,0,0,0-.142,2.088q0,4.352,2.229,4.352a2.111,2.111,0,0,0,.92-.248v1.451a2.617,2.617,0,0,1-1.274.318c-2.371,0-3.574-1.946-3.574-5.8a9.5,9.5,0,0,1,.885-4.671,2.81,2.81,0,0,1,2.654-1.521A2.683,2.683,0,0,1,246.983,92.109Z" transform="translate(-242.1 -91.785)" fill="#999798"/>
      </g>
      <g id="Grupo_44" data-name="Grupo 44" transform="translate(25.441 20.96)">
        <path id="Trazado_45" data-name="Trazado 45" d="M260.948,92.2h1.238l2.512,11.712h-1.557l-.425-2.3h-2.335l-.46,2.3H258.4Zm1.486,8.209-.354-1.875c-.248-1.274-.425-2.618-.566-4.069-.071.708-.177,1.415-.283,2.123s-.248,1.486-.389,2.3l-.283,1.486h1.875Z" transform="translate(-258.4 -92.2)" fill="#999798"/>
      </g>
      <g id="Grupo_45" data-name="Grupo 45" transform="translate(0.955 41.208)">
        <path id="Trazado_46" data-name="Trazado 46" d="M190.1,144.9h4.211v1.345h-2.618v3.715h2.335V151.3h-2.335v4h2.618v1.345H190.1Z" transform="translate(-189.782 -144.582)" fill="#77b729"/>
        <path id="Trazado_47" data-name="Trazado 47" d="M194.048,156.384H189.2V144h4.848v1.981h-2.618v3.078h2.335v1.981h-2.335V154.4h2.618Zm-4.175-.672h3.538v-.672h-2.618v-4.671h2.335V149.7h-2.335v-4.352h2.618v-.672h-3.538Z" transform="translate(-189.2 -144)" fill="#77b729"/>
      </g>
      <g id="Grupo_46" data-name="Grupo 46" transform="translate(7.289 41.491)">
        <path id="Trazado_48" data-name="Trazado 48" d="M208.091,144.835h1.345l1.026,4.777c.142.6.248,1.2.354,1.8s.212,1.238.283,1.875c0-.071.035-.142.035-.212v-.106l.212-1.345.212-1.274.177-.849.92-4.706h1.38l1.061,11.712h-1.521l-.283-3.963c0-.212-.035-.389-.035-.531v-.354l-.071-1.557-.035-1.451v-.212l-.035.248q-.053.425-.106.743a3.681,3.681,0,0,0-.071.531l-.212,1.062-.071.389-.991,5.131H210.6l-.92-4.423c-.142-.566-.248-1.168-.354-1.769s-.177-1.238-.283-1.875l-.46,8.067H207.1Z" transform="translate(-207.1 -144.8)" fill="#999798"/>
      </g>
      <g id="Grupo_47" data-name="Grupo 47" transform="translate(16.595 41.526)">
        <path id="Trazado_49" data-name="Trazado 49" d="M233.4,144.9h2.088a2.885,2.885,0,0,1,2.194.743,3.535,3.535,0,0,1,.672,2.441c0,1.557-.46,2.583-1.38,3.008a4.915,4.915,0,0,1-1.981.318v5.2H233.4Zm1.592,5.166a1.9,1.9,0,0,0,1.345-.389,2.115,2.115,0,0,0,.389-1.415,2.474,2.474,0,0,0-.354-1.521,1.371,1.371,0,0,0-1.132-.5h-.212v3.821Z" transform="translate(-233.4 -144.9)" fill="#999798"/>
      </g>
      <g id="Grupo_48" data-name="Grupo 48" transform="translate(22.751 41.526)">
        <path id="Trazado_50" data-name="Trazado 50" d="M250.8,144.9h2.088a2.746,2.746,0,0,1,1.911.6,3.328,3.328,0,0,1,.814,2.441,4.07,4.07,0,0,1-.425,2.017,1.905,1.905,0,0,1-1.2.955l2.158,5.7h-1.592l-2.158-5.732v5.732H250.8Zm1.592,5.2a1.711,1.711,0,0,0,1.309-.425,2.225,2.225,0,0,0,.389-1.451,6.5,6.5,0,0,0-.071-.92,2.656,2.656,0,0,0-.248-.637.826.826,0,0,0-.425-.354,1.714,1.714,0,0,0-.637-.106h-.283V150.1Z" transform="translate(-250.8 -144.9)" fill="#999798"/>
      </g>
      <g id="Grupo_49" data-name="Grupo 49" transform="translate(29.297 41.526)">
        <path id="Trazado_51" data-name="Trazado 51" d="M269.3,144.9h4.211v1.345h-2.618v3.715h2.335V151.3h-2.335v4h2.618v1.345H269.3Z" transform="translate(-269.3 -144.9)" fill="#999798"/>
      </g>
      <g id="Grupo_50" data-name="Grupo 50" transform="translate(34.569 41.279)">
        <path id="Trazado_52" data-name="Trazado 52" d="M288.517,144.7v1.557a2.33,2.33,0,0,0-1.309-.531,1.361,1.361,0,0,0-1.026.425,1.624,1.624,0,0,0-.389,1.132,1.971,1.971,0,0,0,.283,1.062c.106.142.248.354.46.6s.5.531.849.885a6.08,6.08,0,0,1,1.309,1.7,3.548,3.548,0,0,1,.354,1.7,3.117,3.117,0,0,1-.778,2.229,2.519,2.519,0,0,1-1.981.849,2.688,2.688,0,0,1-1.734-.566v-1.557a2.542,2.542,0,0,0,1.521.6,1.309,1.309,0,0,0,1.026-.425,1.707,1.707,0,0,0,.354-1.168,2.334,2.334,0,0,0-.283-1.132c-.106-.177-.248-.354-.389-.566a5.447,5.447,0,0,0-.637-.708,12.687,12.687,0,0,1-.991-1.061,7.837,7.837,0,0,1-.6-.814,3.456,3.456,0,0,1-.354-1.7,3.332,3.332,0,0,1,.708-2.194,2.534,2.534,0,0,1,1.946-.814A5.324,5.324,0,0,1,288.517,144.7Z" transform="translate(-284.2 -144.2)" fill="#999798"/>
      </g>
      <g id="Grupo_51" data-name="Grupo 51" transform="translate(40.054 41.526)">
        <path id="Trazado_53" data-name="Trazado 53" d="M302.248,144.9h1.238L306,156.612h-1.557l-.425-2.3h-2.335l-.46,2.3H299.7Zm1.521,8.209-.354-1.875c-.248-1.274-.425-2.618-.566-4.069-.071.708-.177,1.415-.283,2.123s-.248,1.486-.389,2.3l-.283,1.486h1.875Z" transform="translate(-299.7 -144.9)" fill="#999798"/>
      </g>
      <g id="Grupo_52" data-name="Grupo 52" transform="translate(47.272 41.526)">
        <path id="Trazado_54" data-name="Trazado 54" d="M320.1,144.9h2.088a2.746,2.746,0,0,1,1.911.6,3.328,3.328,0,0,1,.814,2.441,4.069,4.069,0,0,1-.425,2.017,1.905,1.905,0,0,1-1.2.955l2.158,5.7h-1.592l-2.158-5.732v5.732H320.1Zm1.592,5.2a1.711,1.711,0,0,0,1.309-.425,2.225,2.225,0,0,0,.389-1.451,6.49,6.49,0,0,0-.071-.92,2.656,2.656,0,0,0-.248-.637.826.826,0,0,0-.425-.354,1.713,1.713,0,0,0-.637-.106h-.283V150.1Z" transform="translate(-320.1 -144.9)" fill="#999798"/>
      </g>
      <g id="Grupo_53" data-name="Grupo 53" transform="translate(53.818 41.526)">
        <path id="Trazado_55" data-name="Trazado 55" d="M338.6,144.9h1.592v11.712H338.6Z" transform="translate(-338.6 -144.9)" fill="#999798"/>
      </g>
      <g id="Grupo_54" data-name="Grupo 54" transform="translate(56.33 41.526)">
        <path id="Trazado_56" data-name="Trazado 56" d="M348.248,144.9h1.238L352,156.612h-1.557l-.425-2.3h-2.335l-.46,2.3H345.7Zm1.521,8.209-.354-1.875c-.248-1.274-.425-2.618-.566-4.069-.071.708-.177,1.415-.283,2.123s-.248,1.486-.389,2.3l-.283,1.486h1.875Z" transform="translate(-345.7 -144.9)" fill="#999798"/>
      </g>
      <g id="Grupo_55" data-name="Grupo 55" transform="translate(63.548 41.526)">
        <path id="Trazado_57" data-name="Trazado 57" d="M366.1,144.9h1.592v10.4h2.583v1.345H366.1Z" transform="translate(-366.1 -144.9)" fill="#999798"/>
      </g>
    </g>
    <g id="Grupo_58" data-name="Grupo 58" transform="translate(5.732)">
      <g id="Grupo_57" data-name="Grupo 57" transform="translate(0)">
        <path id="Trazado_58" data-name="Trazado 58" d="M79.7,63.613h-.035L45.206,58.164h0A4.765,4.765,0,0,1,40.5,53.388V13.9l39.311,7.254h0a4.765,4.765,0,0,1,4.706,4.777v33.9C84.481,62.2,82.677,63.613,79.7,63.613ZM41.1,14.678V53.352a4.145,4.145,0,0,0,4.14,4.14l34.5,5.449c1.557,0,4.1-.425,4.1-3.114V25.93a4.145,4.145,0,0,0-4.14-4.14Z" transform="translate(-40.5 -13.9)" fill="#77b729"/>
      </g>
    </g>
    <g id="Grupo_61" data-name="Grupo 61" transform="translate(4.741 12.901)">
      <g id="Grupo_59" data-name="Grupo 59" transform="translate(1.238 1.521)">
        <path id="Trazado_59" data-name="Trazado 59" d="M44.738,76.848A3.549,3.549,0,0,1,41.2,73.31V43.8l33.968,5.98c1.734.5,3.538,1.592,3.538,3.538v28.7Z" transform="translate(-41.2 -43.8)" fill="#fff"/>
      </g>
      <g id="Grupo_60" data-name="Grupo 60" transform="translate(0)">
        <path id="Trazado_60" data-name="Trazado 60" d="M77.754,80.757,42.406,75.379A4.819,4.819,0,0,1,37.7,70.566V39.5l35.6,6.263c2.831.814,4.458,2.548,4.458,4.777ZM40.248,42.578V70.531a2.22,2.22,0,0,0,2.229,2.229h.177l32.482,4.918V50.54c0-1.38-1.734-2.017-2.512-2.265Z" transform="translate(-37.7 -39.5)" fill="#37a4db"/>
      </g>
    </g>
  </g>
</svg>
